HIERARCHY
ROOT Hips
{
	OFFSET 0.000000 0.000000 0.000000
	CHANNELS 6 Xposition Yposition Zposition Xrotation Yrotation Zrotation
	JOINT LeftUpLeg_virtual
	{
		OFFSET 0.000000 0.000000 0.000000
		CHANNELS 3 Xrotation Yrotation Zrotation
		JOINT LeftUpLeg
		{
			OFFSET 13.026900 -6.336304 -1.092800
			CHANNELS 3 Xrotation Yrotation Zrotation
			JOINT LeftLeg
			{
				OFFSET 0.524474 -46.096886 9.782700
				CHANNELS 3 Xrotation Yrotation Zrotation
				JOINT LeftFoot
				{
					OFFSET -0.524474 -53.427422 -12.948200
					CHANNELS 3 Xrotation Yrotation Zrotation
					JOINT LeftToeBase
					{
						OFFSET 0.192200 -14.009700 16.364100
						CHANNELS 3 Xrotation Yrotation Zrotation
						JOINT LeftToe_End
						{
							OFFSET -1.784700 -0.561700 9.474800
							CHANNELS 3 Xrotation Yrotation Zrotation
							End Site
							{
								OFFSET 0 0 0
							}
						}
					}
				}
			}
		}
	}
	JOINT RightUpLeg_virtual
	{
		OFFSET 0.000000 0.000000 0.000000
		CHANNELS 3 Xrotation Yrotation Zrotation
		JOINT RightUpLeg
		{
			OFFSET -12.883000 -6.336304 -1.092800
			CHANNELS 3 Xrotation Yrotation Zrotation
			JOINT RightLeg
			{
				OFFSET -0.524587 -46.096825 9.782800
				CHANNELS 3 Xrotation Yrotation Zrotation
				JOINT RightFoot
				{
					OFFSET 0.524587 -53.427383 -12.948300
					CHANNELS 3 Xrotation Yrotation Zrotation
					JOINT RightToeBase
					{
						OFFSET -0.192200 -14.009700 16.364100
						CHANNELS 3 Xrotation Yrotation Zrotation
						JOINT RightToe_End
						{
							OFFSET 1.784700 -0.561700 9.474800
							CHANNELS 3 Xrotation Yrotation Zrotation
							End Site
							{
								OFFSET 0 0 0
							}
						}
					}
				}
			}
		}
	}
	JOINT Spine_virtual
	{
		OFFSET 0.000000 0.000000 0.000000
		CHANNELS 3 Xrotation Yrotation Zrotation
		JOINT Spine
		{
			OFFSET 0.072000 7.257294 -0.789700
			CHANNELS 3 Xrotation Yrotation Zrotation
			JOINT Spine1
			{
				OFFSET 0.000000 12.508769 -0.658067
				CHANNELS 3 Xrotation Yrotation Zrotation
				JOINT Spine1_split
				{
					OFFSET 0.000000 12.508769 -0.658067
					CHANNELS 3 Xrotation Yrotation Zrotation
					JOINT Spine2
					{
						OFFSET 0.000000 12.508769 -0.658067
						CHANNELS 3 Xrotation Yrotation Zrotation
						JOINT Neck_virtual
						{
							OFFSET 0.000000 0.000000 0.000000
							CHANNELS 3 Xrotation Yrotation Zrotation
							JOINT Neck
							{
								OFFSET 0.000000 14.033295 7.520400
								CHANNELS 3 Xrotation Yrotation Zrotation
								JOINT Head
								{
									OFFSET 0.000000 8.198502 5.703100
									CHANNELS 3 Xrotation Yrotation Zrotation
									JOINT HeadTop_End
									{
										OFFSET 0.000000 17.760803 13.332701
										CHANNELS 3 Xrotation Yrotation Zrotation
										End Site
										{
											OFFSET 0 0 0
										}
									}
								}
							}
						}
						JOINT LeftShoulder_virtual
						{
							OFFSET 0.000000 0.000000 0.000000
							CHANNELS 3 Xrotation Yrotation Zrotation
							JOINT LeftShoulder
							{
								OFFSET 6.292450 5.785301 -0.669000
								CHANNELS 3 Xrotation Yrotation Zrotation
								JOINT LeftShoulder_split
								{
									OFFSET 6.292450 5.785301 -0.669000
									CHANNELS 3 Xrotation Yrotation Zrotation
									JOINT LeftArm
									{
										OFFSET 13.907140 -6.093903 1.965100
										CHANNELS 3 Xrotation Yrotation Zrotation
										JOINT LeftForeArm
										{
											OFFSET 34.140198 0.000000 0.000000
											CHANNELS 3 Xrotation Yrotation Zrotation
											JOINT LeftHand
											{
												OFFSET 40.960209 0.000000 0.000000
												CHANNELS 3 Xrotation Yrotation Zrotation
												End Site
												{
													OFFSET 0 0 0
												}
											}
										}
									}
								}
							}
						}
						JOINT RightShoulder_virtual
						{
							OFFSET 0.000000 0.000000 0.000000
							CHANNELS 3 Xrotation Yrotation Zrotation
							JOINT RightShoulder
							{
								OFFSET -6.292450 5.785301 -0.669000
								CHANNELS 3 Xrotation Yrotation Zrotation
								JOINT RightShoulder_split
								{
									OFFSET -6.292450 5.785301 -0.669000
									CHANNELS 3 Xrotation Yrotation Zrotation
									JOINT RightArm
									{
										OFFSET -13.907140 -6.093903 1.965100
										CHANNELS 3 Xrotation Yrotation Zrotation
										JOINT RightForeArm
										{
											OFFSET -34.140198 0.000000 0.000000
											CHANNELS 3 Xrotation Yrotation Zrotation
											JOINT RightHand
											{
												OFFSET -40.960209 0.000000 0.000000
												CHANNELS 3 Xrotation Yrotation Zrotation
												End Site
												{
													OFFSET 0 0 0
												}
											}
										}
									}
								}
							}
						}
					}
				}
			}
		}
	}
}
MOTION
Frames: 7
Frame Time: 0.03333333
-42.401714 112.115135 -38.962948 0.000000 0.000000 0.000000 4.724526 -3.625478 0.512039 -41.623381 3.196936 8.830764 35.882853 9.126016 0.110402 13.023547 10.413369 -3.285645 -4.155325 0.012316 0.067436 0.000000 0.000000 0.000000 5.590571 -3.514140 0.413848 -3.972637 -13.072975 -7.110998 22.260510 -7.090955 -0.077138 -8.701220 -4.921718 16.605754 -13.302001 0.481181 0.729125 0.000000 0.000000 0.000000 4.882529 -2.561712 -0.833400 2.308382 1.711968 -4.153418 2.117117 2.265810 -0.795451 0.849351 0.164352 0.101262 0.000000 0.000000 0.000000 2.311870 2.305077 -1.179293 1.183560 0.664014 1.015381 -1.415976 11.481761 3.226937 0.000000 0.000000 0.000000 1.512281 2.292404 -1.558497 0.546846 -2.770339 -12.265821 -1.446922 0.175287 1.797289 -11.387016 22.984792 -35.757560 -0.716402 -62.996563 0.090743 0.000000 0.000000 0.000000 1.872663 2.683388 -0.581155 1.067112 -3.034777 10.055200 2.177045 2.024187 -3.016981 -15.247784 -16.510440 46.856057 0.267631 15.585778 -0.069194 0.000000 0.000000 0.000000 
-41.652786 113.403976 -39.212757 0.000000 0.000000 0.000000 4.995415 -3.851851 0.999190 -37.994679 1.380586 11.858420 39.993428 9.349794 -0.191841 11.404816 13.390837 -1.086209 -1.811819 0.415587 -2.267605 0.000000 0.000000 0.000000 6.205147 -3.414412 0.806311 -5.148386 -14.147516 -9.683864 21.879013 -6.339455 0.371820 -7.019983 -2.562551 16.071466 -14.622226 0.500595 0.606697 0.000000 0.000000 0.000000 5.167240 -2.016110 -0.371119 2.194263 2.379260 -4.719481 1.588606 3.181200 -1.234204 0.640809 -0.104520 0.295968 0.000000 0.000000 0.000000 1.803064 3.150428 -1.482881 0.610538 0.342120 1.736875 -1.919095 9.377719 3.586945 0.000000 0.000000 0.000000 1.062236 3.204325 -2.022485 0.836408 -2.800096 -12.776090 -1.786065 -0.170353 2.024561 2.511845 29.099959 -42.957184 -0.194852 -65.092604 0.347915 0.000000 0.000000 0.000000 1.487098 3.577476 -1.026081 1.054009 -2.846071 9.350233 2.839065 1.747545 -2.830325 -17.570867 -16.517390 44.704780 0.295025 16.998763 -0.399856 0.000000 0.000000 0.000000 
-40.658806 114.299210 -39.267353 0.000000 0.000000 0.000000 5.639986 -3.972264 0.779629 -33.727525 -0.113105 15.974733 40.799595 10.536398 -0.550503 10.490536 16.955229 1.406872 1.551736 0.759099 -4.867142 0.000000 0.000000 0.000000 6.925894 -3.044833 0.635047 -4.706834 -14.130575 -11.453094 19.982921 -5.680014 0.705088 -6.799881 -0.934836 15.032517 -14.542309 0.441542 0.749213 0.000000 0.000000 0.000000 5.826480 -1.595258 -0.383055 1.835624 2.908491 -4.931219 0.972605 3.941325 -1.509809 0.630866 -0.114612 0.340838 0.000000 0.000000 0.000000 1.103315 3.848026 -1.661182 -0.028279 0.027777 2.318617 -1.908943 7.041394 3.994032 0.000000 0.000000 0.000000 0.517380 3.948394 -2.262108 1.071450 -2.692011 -12.331043 -2.254466 -0.823449 1.998491 14.768740 32.907189 -50.296212 0.384403 -64.191142 0.712373 0.000000 0.000000 0.000000 1.032105 4.314823 -1.319830 1.102216 -2.825226 8.767570 3.068994 1.591371 -2.396979 -19.298056 -17.117902 42.737901 0.180605 18.077550 -0.575709 0.000000 0.000000 0.000000 
-39.385864 114.648727 -39.135288 0.000000 0.000000 0.000000 6.570637 -3.313591 -0.134049 -29.272422 -0.890853 20.780246 38.616561 11.904226 -0.637764 9.941398 19.600119 2.825659 3.501525 0.962574 -6.855472 0.000000 0.000000 0.000000 7.506596 -1.830177 -0.173358 -2.775409 -13.127160 -12.125002 16.778262 -5.139175 0.822483 -7.183858 -0.066203 14.822721 -14.165154 0.345777 0.889060 0.000000 0.000000 0.000000 6.717608 -0.654532 -0.867886 1.316580 3.273017 -4.741337 0.351575 4.447454 -1.637253 1.043230 0.038016 0.568810 0.000000 0.000000 0.000000 0.352038 4.303237 -1.729932 -0.631738 -0.308942 2.649242 -1.442215 4.606599 4.420302 0.000000 0.000000 0.000000 -0.049151 4.412272 -2.279401 1.243193 -2.540837 -11.132642 -2.901668 -1.227980 1.445745 23.026519 35.242929 -55.955990 0.750673 -60.664046 0.980859 0.000000 0.000000 0.000000 0.567052 4.793459 -1.457280 1.189496 -2.881130 8.317446 2.836779 1.554595 -1.577711 -20.459801 -18.107561 40.691600 -0.010846 19.019536 -0.565518 0.000000 0.000000 0.000000 
-37.654102 114.244202 -39.031155 0.000000 0.000000 0.000000 7.440469 -1.128369 -1.366336 -25.799387 -0.494534 25.595656 35.015996 12.421029 -0.416815 9.734337 19.772327 2.051181 2.765731 1.096001 -7.562527 0.000000 0.000000 0.000000 7.993248 0.662882 -1.398582 -0.218802 -11.608703 -11.996578 12.780997 -4.650639 0.638495 -7.620533 0.034978 16.511897 -14.307626 0.247251 0.732321 0.000000 0.000000 0.000000 7.647946 0.986226 -1.633948 0.816495 3.455742 -4.186200 -0.207387 4.653041 -1.680526 1.403566 0.480162 0.601772 0.000000 0.000000 0.000000 -0.366095 4.469952 -1.737928 -1.070664 -0.708319 2.717030 -0.710083 2.367844 4.778021 0.000000 0.000000 0.000000 -0.574268 4.565538 -2.142861 1.337358 -2.357667 -9.431955 -3.610167 -1.368433 0.527897 26.860969 37.173072 -59.132875 0.790138 -54.736736 1.031020 0.000000 0.000000 0.000000 0.169764 4.961658 -1.487583 1.291079 -3.028419 8.013995 2.431336 1.384999 -0.612059 -20.939506 -19.157132 38.529360 -0.175474 20.025618 -0.419792 0.000000 0.000000 0.000000 
-35.419132 113.184700 -38.856564 0.000000 0.000000 0.000000 8.260294 2.425914 -2.492539 -23.926129 0.758860 29.579647 31.415158 11.516782 -0.066833 10.043029 16.869100 -1.409974 -0.629881 1.124096 -6.624626 0.000000 0.000000 0.000000 8.312198 4.277917 -2.544269 2.384249 -10.043470 -11.588608 9.246912 -4.211960 0.221791 -8.246159 -0.648219 19.686127 -14.551382 0.185450 0.193965 0.000000 0.000000 0.000000 8.371826 3.553789 -2.308027 0.412271 3.452292 -3.454068 -0.640832 4.563157 -1.697890 1.594580 1.046866 0.452188 0.000000 0.000000 0.000000 -0.985327 4.359993 -1.741531 -1.330990 -1.157651 2.600868 0.091985 0.511380 5.002450 0.000000 0.000000 0.000000 -0.987508 4.444845 -1.952140 1.369868 -2.259854 -7.672181 -4.398771 -1.149829 -0.771521 27.037849 39.138794 -59.891982 0.495939 -47.094212 0.868839 0.000000 0.000000 0.000000 -0.145053 4.824852 -1.492400 1.361587 -3.272099 7.806804 2.012909 1.239410 0.416857 -20.813002 -19.999557 36.295287 -0.141849 21.213092 -0.314209 0.000000 0.000000 0.000000 
-32.626732 111.737335 -38.774067 0.000000 0.000000 0.000000 8.776599 6.732938 -3.014958 -23.249547 2.283119 31.912379 28.740145 9.543600 0.299072 9.878601 11.906042 -6.393799 -4.791629 0.870223 -4.535766 0.000000 0.000000 0.000000 8.517660 8.745940 -3.185533 4.552291 -9.030932 -11.522410 7.514023 -4.401857 -0.277434 -9.227043 -2.332243 22.349900 -13.576400 0.158875 -0.484805 0.000000 0.000000 0.000000 8.802390 7.114776 -2.613476 0.144301 3.287055 -2.847817 -0.957835 4.250034 -1.709743 1.634064 1.412461 0.269530 0.000000 0.000000 0.000000 -1.462984 4.038199 -1.754538 -1.508229 -1.650060 2.381554 0.722960 -0.767551 5.015578 0.000000 0.000000 0.000000 -1.230645 4.131225 -1.763300 1.373070 -2.247935 -6.271867 -4.675300 -0.705674 -1.882289 24.873037 40.543894 -58.583721 0.151273 -39.132346 0.647015 0.000000 0.000000 0.000000 -0.384906 4.464877 -1.507777 1.367995 -3.647579 7.772276 1.692963 1.274625 1.087817 -20.462519 -20.787090 34.402263 0.145134 22.724533 -0.383272 0.000000 0.000000 0.000000 
